<svg width="16" height="16" viewBox="0 0 16 16" fill="none" xmlns="http://www.w3.org/2000/svg">
<path d="M0.616 1.23001C0.441334 1.23001 0.295 1.17134 0.177 1.05401C0.059 0.936005 0 0.790006 0 0.616006C0 0.441339 0.059 0.295006 0.177 0.177006C0.295 0.0590056 0.441334 5.58659e-06 0.616 5.58659e-06C0.790667 5.58659e-06 0.936667 0.0590056 1.054 0.177006C1.17133 0.295006 1.23033 0.441339 1.231 0.616006C1.23167 0.790672 1.17267 0.936672 1.054 1.05401C0.935333 1.17134 0.789 1.23034 0.615 1.23101M4.308 1.23101C4.13333 1.23101 3.987 1.17201 3.869 1.05401C3.751 0.936005 3.692 0.790006 3.692 0.616006C3.692 0.442006 3.751 0.295672 3.869 0.177006C3.987 0.058339 4.13333 -0.00066108 4.308 5.58659e-06C4.48267 0.000672253 4.62867 0.0596723 4.746 0.177006C4.86333 0.294339 4.92233 0.440672 4.923 0.616006C4.92367 0.791339 4.86467 0.937339 4.746 1.05401C4.62733 1.17067 4.48133 1.22967 4.308 1.23101ZM8 1.23101C7.826 1.23101 7.68 1.17201 7.562 1.05401C7.444 0.936005 7.385 0.790006 7.385 0.616006C7.385 0.442006 7.444 0.295672 7.562 0.177006C7.68 0.058339 7.826 -0.00066108 8 5.58659e-06C8.174 0.000672253 8.32033 0.0596723 8.439 0.177006C8.55767 0.294339 8.61633 0.440672 8.615 0.616006C8.61367 0.791339 8.55467 0.937339 8.438 1.05401C8.32133 1.17067 8.17533 1.23034 8 1.23101ZM0.616 4.92301C0.441334 4.92301 0.295 4.86401 0.177 4.74601C0.059 4.62801 0 4.48201 0 4.30801C0 4.13401 0.059 3.98767 0.177 3.86901C0.295 3.75034 0.441334 3.69134 0.616 3.69201C0.790667 3.69267 0.936667 3.75167 1.054 3.86901C1.17133 3.98634 1.23033 4.13267 1.231 4.30801C1.23167 4.48334 1.17267 4.62934 1.054 4.74601C0.935333 4.86267 0.789 4.92167 0.615 4.92301M0.615 8.61601C0.441 8.61601 0.295 8.55701 0.177 8.43901C0.059 8.31967 0 8.17334 0 8.00001C0 7.82667 0.059 7.68067 0.177 7.56201C0.295 7.44334 0.441334 7.38434 0.616 7.38501C0.790667 7.38567 0.936667 7.44467 1.054 7.56201C1.17133 7.67934 1.23033 7.82534 1.231 8.00001C1.23167 8.17467 1.17267 8.32101 1.054 8.43901C0.935333 8.55701 0.789 8.61567 0.615 8.61501M15.385 8.61501C15.2103 8.61501 15.064 8.55601 14.946 8.43801C14.828 8.32001 14.7693 8.17401 14.77 8.00001C14.7707 7.82601 14.8297 7.68001 14.947 7.56201C15.0643 7.44401 15.2103 7.38501 15.385 7.38501C15.5597 7.38501 15.706 7.44401 15.824 7.56201C15.942 7.68001 16.0007 7.82601 16 8.00001C15.9993 8.17401 15.9403 8.32034 15.823 8.43901C15.7057 8.55767 15.5597 8.61634 15.385 8.61501ZM15.385 12.308C15.2103 12.308 15.064 12.249 14.946 12.131C14.828 12.013 14.769 11.8667 14.769 11.692C14.769 11.5173 14.828 11.3713 14.946 11.254C15.064 11.1367 15.21 11.0777 15.384 11.077C15.5587 11.077 15.705 11.136 15.823 11.254C15.941 11.372 16 11.518 16 11.692C16 11.866 15.941 12.0123 15.823 12.131C15.705 12.2497 15.559 12.3087 15.385 12.308ZM8 16C7.826 16 7.68 15.941 7.562 15.823C7.444 15.705 7.385 15.559 7.385 15.385C7.385 15.211 7.444 15.0647 7.562 14.946C7.68 14.8273 7.826 14.7683 8 14.769C8.174 14.7697 8.32033 14.8287 8.439 14.946C8.55767 15.0633 8.61633 15.2093 8.615 15.384C8.615 15.5587 8.556 15.705 8.438 15.823C8.32 15.941 8.174 16 8 16ZM11.692 16C11.518 16 11.372 15.941 11.254 15.823C11.136 15.705 11.077 15.559 11.077 15.385C11.077 15.211 11.136 15.0647 11.254 14.946C11.372 14.8273 11.518 14.7683 11.692 14.769C11.866 14.7697 12.0123 14.8287 12.131 14.946C12.2497 15.0633 12.3087 15.2093 12.308 15.384C12.3073 15.5587 12.2483 15.705 12.131 15.823C12.0137 15.941 11.8673 16 11.692 16ZM15.384 16C15.21 16 15.064 15.941 14.946 15.823C14.828 15.705 14.769 15.559 14.769 15.385C14.769 15.211 14.828 15.0647 14.946 14.946C15.064 14.8273 15.21 14.7683 15.384 14.769C15.558 14.7697 15.7043 14.8287 15.823 14.946C15.9417 15.0633 16.0007 15.2093 16 15.384C16 15.5587 15.941 15.705 15.823 15.823C15.705 15.941 15.558 16 15.384 16ZM15 4.42301V1.61601C15 1.43601 14.9423 1.28834 14.827 1.17301C14.7117 1.05767 14.5643 1.00001 14.385 1.00001H11.577C11.4357 1.00001 11.317 0.952006 11.221 0.856006C11.125 0.760006 11.077 0.641006 11.077 0.499006C11.077 0.357006 11.125 0.238339 11.221 0.143006C11.317 0.0476724 11.4357 5.58659e-06 11.577 5.58659e-06H14.385C14.829 5.58659e-06 15.209 0.158339 15.525 0.475005C15.841 0.791672 15.9993 1.17167 16 1.61501V4.42301C16 4.56501 15.952 4.68367 15.856 4.77901C15.76 4.87434 15.641 4.92234 15.499 4.92301C15.357 4.92367 15.2383 4.87567 15.143 4.77901C15.0477 4.68234 15 4.56367 15 4.42301ZM0 14.385V11.577C0 11.435 0.0480001 11.3163 0.144 11.221C0.24 11.1257 0.359 11.0777 0.501 11.077C0.643 11.0763 0.761667 11.1243 0.857 11.221C0.952333 11.3177 1 11.4363 1 11.577V14.384C1 14.564 1.05767 14.7117 1.173 14.827C1.28833 14.9423 1.436 15 1.616 15H4.423C4.565 15 4.68367 15.048 4.779 15.144C4.87433 15.24 4.92233 15.359 4.923 15.501C4.92367 15.643 4.87567 15.7617 4.779 15.857C4.68233 15.9523 4.56367 16 4.423 16H1.616C1.17133 16 0.791 15.8417 0.475 15.525C0.159 15.2083 0.000666667 14.8283 0 14.385Z" fill="white"/>
</svg>
