<svg width="20" height="20" viewBox="0 0 20 20" fill="none" xmlns="http://www.w3.org/2000/svg">
<path d="M13.0004 3.3999C13.0004 4.19555 12.6843 4.95861 12.1217 5.52122C11.5591 6.08383 10.796 6.3999 10.0004 6.3999C9.20474 6.3999 8.44168 6.08383 7.87907 5.52122C7.31646 4.95861 7.00039 4.19555 7.00039 3.3999C7.00039 2.60425 7.31646 1.84119 7.87907 1.27858C8.44168 0.715973 9.20474 0.399902 10.0004 0.399902C10.796 0.399902 11.5591 0.715973 12.1217 1.27858C12.6843 1.84119 13.0004 2.60425 13.0004 3.3999ZM19.0004 3.9999C19.0004 4.63642 18.7475 5.24687 18.2974 5.69696C17.8474 6.14705 17.2369 6.3999 16.6004 6.3999C15.9639 6.3999 15.3534 6.14705 14.9033 5.69696C14.4532 5.24687 14.2004 4.63642 14.2004 3.9999C14.2004 3.36338 14.4532 2.75293 14.9033 2.30285C15.3534 1.85276 15.9639 1.5999 16.6004 1.5999C17.2369 1.5999 17.8474 1.85276 18.2974 2.30285C18.7475 2.75293 19.0004 3.36338 19.0004 3.9999ZM3.40039 6.3999C4.03691 6.3999 4.64736 6.14705 5.09745 5.69696C5.54753 5.24687 5.80039 4.63642 5.80039 3.9999C5.80039 3.36338 5.54753 2.75293 5.09745 2.30285C4.64736 1.85276 4.03691 1.5999 3.40039 1.5999C2.76387 1.5999 2.15342 1.85276 1.70333 2.30285C1.25325 2.75293 1.00039 3.36338 1.00039 3.9999C1.00039 4.63642 1.25325 5.24687 1.70333 5.69696C2.15342 6.14705 2.76387 6.3999 3.40039 6.3999ZM5.20039 9.0999C5.20039 8.2719 5.87239 7.5999 6.70039 7.5999H13.3004C14.1284 7.5999 14.8004 8.2719 14.8004 9.0999V14.7999C14.8004 16.0729 14.2947 17.2938 13.3945 18.194C12.4943 19.0942 11.2734 19.5999 10.0004 19.5999C8.72735 19.5999 7.50645 19.0942 6.60628 18.194C5.7061 17.2938 5.20039 16.0729 5.20039 14.7999V9.0999ZM4.00039 9.0999C4.00039 8.5443 4.16839 8.0295 4.45519 7.5999H1.90039C1.07239 7.5999 0.400391 8.2719 0.400391 9.0999V13.5999C0.400335 14.1136 0.510237 14.6215 0.722713 15.0892C0.935188 15.5569 1.24532 15.9738 1.63226 16.3117C2.0192 16.6497 2.47399 16.9009 2.96607 17.0485C3.45815 17.1961 3.97613 17.2367 4.48519 17.1675C4.16468 16.4194 3.99973 15.6138 4.00039 14.7999V9.0999ZM16.0004 14.7999C16.0004 15.6399 15.8276 16.4415 15.5156 17.1675C15.674 17.1891 15.8356 17.1999 16.0004 17.1999C16.9552 17.1999 17.8708 16.8206 18.546 16.1455C19.2211 15.4704 19.6004 14.5547 19.6004 13.5999V9.0999C19.6004 8.2719 18.9284 7.5999 18.1004 7.5999H15.5456C15.8336 8.0295 16.0004 8.5443 16.0004 9.0999V14.7999Z" fill="#A68A65"/>
</svg>
