<svg width="80" height="80" viewBox="0 0 80 80" fill="none" xmlns="http://www.w3.org/2000/svg">
<g filter="url(#filter0_b_43_623)">
<path fill-rule="evenodd" clip-rule="evenodd" d="M40 80C50.6087 80 60.7828 75.7857 68.2843 68.2843C75.7857 60.7828 80 50.6087 80 40C80 29.3913 75.7857 19.2172 68.2843 11.7157C60.7828 4.21427 50.6087 0 40 0C29.3913 0 19.2172 4.21427 11.7157 11.7157C4.21427 19.2172 0 29.3913 0 40C0 50.6087 4.21427 60.7828 11.7157 68.2843C19.2172 75.7857 29.3913 80 40 80ZM37.775 25.84C37.022 25.3376 36.1467 25.0491 35.2426 25.0051C34.3384 24.9612 33.4393 25.1636 32.6412 25.5906C31.843 26.0177 31.1758 26.6534 30.7106 27.43C30.2455 28.2065 29.9999 29.0948 30 30V50C29.9999 50.9052 30.2455 51.7935 30.7106 52.57C31.1758 53.3466 31.843 53.9823 32.6412 54.4094C33.4393 54.8364 34.3384 55.0388 35.2426 54.9949C36.1467 54.9509 37.022 54.6624 37.775 54.16L52.775 44.16C53.4598 43.7034 54.0213 43.0848 54.4096 42.3591C54.7979 41.6334 55.0011 40.8231 55.0011 40C55.0011 39.1769 54.7979 38.3666 54.4096 37.6409C54.0213 36.9152 53.4598 36.2966 52.775 35.84L37.775 25.84Z" fill="url(#paint0_linear_43_623)"/>
<path d="M53.0524 44.576L53.0524 44.576L38.0525 54.5759C38.0525 54.576 38.0524 54.576 38.0524 54.576C37.2241 55.1286 36.2613 55.446 35.2668 55.4943C34.2723 55.5426 33.2833 55.32 32.4053 54.8502C31.5273 54.3805 30.7934 53.6812 30.2817 52.827C29.77 51.9728 29.4999 50.9957 29.5 50L53.0524 44.576ZM53.0524 44.576C53.8057 44.0737 54.4233 43.3933 54.8505 42.595C55.2776 41.7967 55.5011 40.9054 55.5011 40C55.5011 39.0946 55.2776 38.2033 54.8505 37.405C54.4233 36.6067 53.8057 35.9263 53.0524 35.424L53.0524 35.424M53.0524 44.576L53.0524 35.424M53.0524 35.424L38.0525 25.4241C38.0525 25.424 38.0524 25.424 38.0524 25.424M53.0524 35.424L38.0524 25.424M38.0524 25.424C37.2241 24.8714 36.2613 24.554 35.2668 24.5057M38.0524 25.424L35.2668 24.5057M35.2668 24.5057C34.2723 24.4574 33.2833 24.68 32.4053 25.1498M35.2668 24.5057L32.4053 25.1498M32.4053 25.1498C31.5273 25.6195 30.7934 26.3188 30.2817 27.173M32.4053 25.1498L30.2817 27.173M30.2817 27.173C29.77 28.0272 29.4999 29.0043 29.5 30M30.2817 27.173L29.5 30M29.5 30C29.5 30 29.5 30 29.5 30.0001M29.5 30V30.0001M29.5 30.0001V49.9999V30.0001ZM67.9307 67.9307C60.523 75.3384 50.4761 79.5 40 79.5C29.5239 79.5 19.477 75.3384 12.0693 67.9307C4.6616 60.523 0.5 50.4761 0.5 40C0.5 29.5239 4.6616 19.477 12.0693 12.0693C19.477 4.6616 29.5239 0.5 40 0.5C50.4761 0.5 60.523 4.6616 67.9307 12.0693C75.3384 19.477 79.5 29.5239 79.5 40C79.5 50.4761 75.3384 60.523 67.9307 67.9307Z" stroke="url(#paint1_linear_43_623)"/>
</g>
<defs>
<filter id="filter0_b_43_623" x="-6" y="-6" width="92" height="92" filterUnits="userSpaceOnUse" color-interpolation-filters="sRGB">
<feFlood flood-opacity="0" result="BackgroundImageFix"/>
<feGaussianBlur in="BackgroundImageFix" stdDeviation="3"/>
<feComposite in2="SourceAlpha" operator="in" result="effect1_backgroundBlur_43_623"/>
<feBlend mode="normal" in="SourceGraphic" in2="effect1_backgroundBlur_43_623" result="shape"/>
</filter>
<linearGradient id="paint0_linear_43_623" x1="16.4" y1="7.2" x2="58.8" y2="76.4" gradientUnits="userSpaceOnUse">
<stop stop-color="white" stop-opacity="0.8"/>
<stop offset="1" stop-color="white" stop-opacity="0.4"/>
</linearGradient>
<linearGradient id="paint1_linear_43_623" x1="22.4" y1="4.4" x2="56.8" y2="80" gradientUnits="userSpaceOnUse">
<stop stop-color="white" stop-opacity="0.8"/>
<stop offset="1" stop-color="#8A91A7" stop-opacity="0.6"/>
</linearGradient>
</defs>
</svg>
