<svg width="32" height="32" viewBox="0 0 32 32" fill="none" xmlns="http://www.w3.org/2000/svg">
<path fill-rule="evenodd" clip-rule="evenodd" d="M16 32C24.8366 32 32 24.8366 32 16C32 7.16344 24.8366 0 16 0C7.16344 0 0 7.16344 0 16C0 24.8366 7.16344 32 16 32ZM14.667 9.33333C14.667 8.59695 15.2639 8 16.0003 8C16.7367 8 17.3337 8.59695 17.3337 9.33333V13.667C17.3337 14.2193 17.7814 14.667 18.3337 14.667H22.6667C23.403 14.667 24 15.2639 24 16.0003C24 16.7367 23.403 17.3337 22.6667 17.3337H18.3337C17.7814 17.3337 17.3337 17.7814 17.3337 18.3337V22.6667C17.3337 23.403 16.7367 24 16.0003 24C15.2639 24 14.667 23.403 14.667 22.6667V18.3337C14.667 17.7814 14.2193 17.3337 13.667 17.3337H9.33333C8.59695 17.3337 8 16.7367 8 16.0003C8 15.2639 8.59695 14.667 9.33333 14.667H13.667C14.2193 14.667 14.667 14.2193 14.667 13.667V9.33333Z" fill="#A68A65"/>
</svg>
